<svg width="1200" height="800" viewBox="0 0 1200 800" fill="none" xmlns="http://www.w3.org/2000/svg">
<path d="M866.667 400C866.667 252.724 747.276 133.333 600 133.333C452.724 133.333 333.333 252.724 333.333 400C333.333 533.101 430.849 643.422 558.333 663.427V477.083H490.625V400H558.333V341.25C558.333 274.417 598.145 237.5 659.057 237.5C688.233 237.5 718.75 242.708 718.75 242.708V308.333H685.124C651.997 308.333 641.667 328.889 641.667 349.978V400H715.625L703.802 477.083H641.667V663.427C769.151 643.422 866.667 533.101 866.667 400Z" fill="#FFE4AE"/>
<path d="M703.802 477.083L715.625 400H641.667V349.978C641.667 328.889 651.997 308.333 685.124 308.333H718.75V242.708C718.75 242.708 688.233 237.5 659.057 237.5C598.145 237.5 558.333 274.417 558.333 341.25V400H490.625V477.083H558.333V663.427C572.117 665.587 586.048 666.67 600 666.667C614.175 666.667 628.09 665.557 641.667 663.427V477.083H703.802Z" fill="#030303"/>
</svg>
