<?xml version="1.0" encoding="utf-8"?>
<!-- Generator: Adobe Illustrator 28.0.0, SVG Export Plug-In . SVG Version: 6.00 Build 0)  -->
<svg version="1.1" id="Calque_1" xmlns="http://www.w3.org/2000/svg" xmlns:xlink="http://www.w3.org/1999/xlink" x="0px" y="0px"
	 viewBox="0 0 20 20" style="enable-background:new 0 0 20 20;" xml:space="preserve">
<style type="text/css">
	.st0{fill:#FFE5AF;}
	.st1{fill:#030405;}
</style>
<path class="st0" d="M19.5,9.78c0-5.16-4.18-9.34-9.34-9.34S0.82,4.63,0.82,9.78c0,4.66,3.41,8.52,7.88,9.22v-6.52H6.33v-2.7H8.7
	V7.73c0-2.34,1.39-3.63,3.53-3.63c1.02,0,2.09,0.18,2.09,0.18v2.3h-1.18c-1.16,0-1.52,0.72-1.52,1.46v1.75h2.59l-0.41,2.7h-2.18
	v6.52C16.08,18.31,19.5,14.44,19.5,9.78z"/>
<path class="st1" d="M13.79,12.48l0.41-2.7h-2.59V8.03c0-0.74,0.36-1.46,1.52-1.46h1.18v-2.3c0,0-1.07-0.18-2.09-0.18
	c-2.13,0-3.53,1.29-3.53,3.63v2.06H6.33v2.7H8.7v6.52c0.48,0.08,0.97,0.11,1.46,0.11c0.5,0,0.98-0.04,1.46-0.11v-6.52H13.79z"/>
</svg>
