<svg width="32" height="32" viewBox="0 0 32 32" fill="none" xmlns="http://www.w3.org/2000/svg">
<g clip-path="url(#clip0_1_15)">
<path d="M25 0H7C5.14348 0 3.36301 0.737498 2.05025 2.05025C0.737498 3.36301 0 5.14348 0 7L0 25C0 26.8565 0.737498 28.637 2.05025 29.9497C3.36301 31.2625 5.14348 32 7 32H25C26.8565 32 28.637 31.2625 29.9497 29.9497C31.2625 28.637 32 26.8565 32 25V7C32 5.14348 31.2625 3.36301 29.9497 2.05025C28.637 0.737498 26.8565 0 25 0ZM30 25C30 26.3261 29.4732 27.5979 28.5355 28.5355C27.5979 29.4732 26.3261 30 25 30H7C5.67392 30 4.40215 29.4732 3.46447 28.5355C2.52678 27.5979 2 26.3261 2 25V7C2 5.67392 2.52678 4.40215 3.46447 3.46447C4.40215 2.52678 5.67392 2 7 2H25C26.3261 2 27.5979 2.52678 28.5355 3.46447C29.4732 4.40215 30 5.67392 30 7V25Z" fill="#FFE4AE"/>
<path d="M15.29 5.29L8.29001 12.29L9.70001 13.7L15 8.41V27H17V8.41L22.29 13.7L23.7 12.29L16.7 5.29C16.5126 5.10375 16.2592 4.99921 15.995 4.99921C15.7308 4.99921 15.4774 5.10375 15.29 5.29Z" fill="#FFE4AE"/>
</g>
<defs>
<clipPath id="clip0_1_15">
<rect width="32" height="32" fill="white"/>
</clipPath>
</defs>
</svg>
