<?xml version="1.0" encoding="utf-8"?>
<!-- Generator: Adobe Illustrator 28.0.0, SVG Export Plug-In . SVG Version: 6.00 Build 0)  -->
<svg version="1.1" id="Calque_1" xmlns="http://www.w3.org/2000/svg" xmlns:xlink="http://www.w3.org/1999/xlink" x="0px" y="0px"
	 viewBox="0 0 20 20" style="enable-background:new 0 0 20 20;" xml:space="preserve">
<style type="text/css">
	.st0{fill:#FFE5AF;}
</style>
<path class="st0" d="M10,1.54c-2.3,0-2.59,0.01-3.49,0.05c-0.9,0.04-1.52,0.18-2.05,0.39C3.9,2.2,3.43,2.49,2.96,2.96
	C2.49,3.43,2.2,3.9,1.98,4.46C1.77,4.99,1.63,5.61,1.59,6.51C1.55,7.41,1.54,7.7,1.54,10c0,2.3,0.01,2.59,0.05,3.49
	c0.04,0.9,0.18,1.52,0.39,2.05c0.22,0.56,0.51,1.03,0.98,1.5c0.47,0.47,0.94,0.76,1.5,0.98c0.54,0.21,1.15,0.35,2.05,0.39
	c0.9,0.04,1.19,0.05,3.49,0.05c2.3,0,2.59-0.01,3.49-0.05c0.9-0.04,1.52-0.18,2.05-0.39c0.56-0.22,1.03-0.51,1.5-0.98
	c0.47-0.47,0.76-0.94,0.98-1.5c0.21-0.54,0.35-1.15,0.39-2.05c0.04-0.9,0.05-1.19,0.05-3.49c0-2.3-0.01-2.59-0.05-3.49
	c-0.04-0.9-0.18-1.52-0.39-2.05c-0.22-0.56-0.51-1.03-0.98-1.5c-0.47-0.47-0.94-0.76-1.5-0.98c-0.54-0.21-1.15-0.35-2.05-0.39
	C12.59,1.55,12.3,1.54,10,1.54z M10,3.06c2.26,0,2.53,0.01,3.42,0.05c0.83,0.04,1.27,0.18,1.57,0.29c0.4,0.15,0.68,0.34,0.97,0.63
	c0.3,0.3,0.48,0.58,0.63,0.97c0.12,0.3,0.25,0.75,0.29,1.57c0.04,0.89,0.05,1.16,0.05,3.42s-0.01,2.53-0.05,3.42
	c-0.04,0.83-0.18,1.27-0.29,1.57c-0.15,0.4-0.34,0.68-0.63,0.97c-0.3,0.3-0.58,0.48-0.97,0.63c-0.3,0.12-0.75,0.25-1.57,0.29
	c-0.89,0.04-1.16,0.05-3.42,0.05s-2.53-0.01-3.42-0.05c-0.83-0.04-1.27-0.18-1.57-0.29c-0.4-0.15-0.68-0.34-0.97-0.63
	c-0.3-0.3-0.48-0.58-0.63-0.97c-0.12-0.3-0.25-0.75-0.29-1.57C3.07,12.53,3.06,12.26,3.06,10s0.01-2.53,0.05-3.42
	C3.15,5.75,3.29,5.31,3.4,5.01c0.15-0.4,0.34-0.68,0.63-0.97c0.3-0.3,0.58-0.48,0.97-0.63c0.3-0.12,0.75-0.25,1.57-0.29
	C7.47,3.07,7.74,3.06,10,3.06z"/>
<path class="st0" d="M10,12.82c-1.56,0-2.82-1.26-2.82-2.82c0-1.56,1.26-2.82,2.82-2.82c1.56,0,2.82,1.26,2.82,2.82
	C12.82,11.56,11.56,12.82,10,12.82z M10,5.65C7.6,5.65,5.65,7.6,5.65,10c0,2.4,1.95,4.35,4.35,4.35c2.4,0,4.35-1.95,4.35-4.35
	C14.35,7.6,12.4,5.65,10,5.65z M15.53,5.48c0,0.56-0.45,1.02-1.02,1.02c-0.56,0-1.02-0.45-1.02-1.02c0-0.56,0.45-1.02,1.02-1.02
	C15.08,4.47,15.53,4.92,15.53,5.48z"/>
</svg>
