<svg width="265" height="215" viewBox="0 0 265 215" fill="none" xmlns="http://www.w3.org/2000/svg">
<path d="M83.3396 215C183.345 215 238.033 132.292 238.033 60.57C238.033 58.2211 237.985 55.8828 237.88 53.5543C248.52 45.8681 257.704 36.3508 265 25.4486C255.258 29.7719 244.775 32.6819 233.778 33.9939C245.003 27.2738 253.62 16.645 257.686 3.97349C247.013 10.2944 235.337 14.75 223.162 17.1483C213.24 6.59852 199.116 0 183.475 0C153.451 0 129.103 24.307 129.103 54.2689C129.103 58.5282 129.581 62.6713 130.513 66.6448C85.3262 64.3748 45.2575 42.7772 18.4413 9.93639C13.6115 18.2188 11.0709 27.6328 11.0792 37.2164C11.0792 56.047 20.6777 72.6707 35.2739 82.3958C26.6402 82.1329 18.1958 79.8048 10.6505 75.6073C10.6425 75.8355 10.6425 76.0574 10.6425 76.3006C10.6425 102.586 29.3835 124.533 54.2611 129.506C49.5887 130.777 44.7673 131.419 39.9246 131.416C36.4951 131.414 33.0736 131.086 29.7063 130.437C36.6282 152.003 56.6995 167.696 80.4958 168.135C61.8873 182.695 38.4458 191.368 12.9688 191.368C8.58571 191.368 4.25595 191.119 0 190.617C24.0622 206.013 52.6338 214.997 83.3423 214.997" fill="#FFE4AE"/>
</svg>
