<?xml version="1.0" encoding="utf-8"?>
<!-- Generator: Adobe Illustrator 28.0.0, SVG Export Plug-In . SVG Version: 6.00 Build 0)  -->
<svg version="1.1" id="Calque_1" xmlns="http://www.w3.org/2000/svg" xmlns:xlink="http://www.w3.org/1999/xlink" x="0px" y="0px"
	 viewBox="0 0 20 20" style="enable-background:new 0 0 20 20;" xml:space="preserve">
<style type="text/css">
	.st0{fill:#FFE5AF;}
</style>
<path class="st0" d="M6.27,18.09c7.59,0,11.73-6.02,11.73-11.24c0-0.17,0-0.34-0.01-0.51c0.81-0.56,1.5-1.25,2.06-2.05
	c-0.74,0.31-1.53,0.53-2.37,0.62c0.85-0.49,1.51-1.26,1.81-2.18c-0.81,0.46-1.7,0.78-2.62,0.96c-0.75-0.77-1.82-1.25-3.01-1.25
	c-2.28,0-4.12,1.77-4.12,3.95c0,0.31,0.04,0.61,0.11,0.9c-3.43-0.17-6.47-1.74-8.5-4.13c-0.37,0.6-0.56,1.29-0.56,1.99
	c0,1.37,0.73,2.58,1.84,3.29c-0.65-0.02-1.3-0.19-1.87-0.49c0,0.02,0,0.03,0,0.05c0,1.91,1.42,3.51,3.31,3.87
	C3.71,11.96,3.34,12,2.98,12c-0.26,0-0.52-0.02-0.78-0.07c0.53,1.57,2.05,2.71,3.85,2.74c-1.41,1.06-3.19,1.69-5.12,1.69
	c-0.33,0-0.66-0.02-0.98-0.05C1.77,17.43,3.94,18.09,6.27,18.09"/>
</svg>
