<?xml version="1.0" encoding="utf-8"?>
<!-- Generator: Adobe Illustrator 28.0.0, SVG Export Plug-In . SVG Version: 6.00 Build 0)  -->
<svg version="1.1" id="Calque_1" xmlns="http://www.w3.org/2000/svg" xmlns:xlink="http://www.w3.org/1999/xlink" x="0px" y="0px"
	 viewBox="0 0 20 20" style="enable-background:new 0 0 20 20;" xml:space="preserve">
<style type="text/css">
	.st0{fill:#FFE5AF;}
	.st1{fill:#030405;}
</style>
<path class="st0" d="M18.87,6.23c-0.21-0.8-0.84-1.43-1.64-1.65C15.79,4.19,10,4.19,10,4.19s-5.79,0-7.23,0.39
	c-0.8,0.21-1.42,0.85-1.64,1.65c-0.39,1.45-0.39,4.48-0.39,4.48s0,3.03,0.39,4.48c0.21,0.8,0.84,1.43,1.64,1.65
	C4.21,17.23,10,17.23,10,17.23s5.79,0,7.23-0.39c0.8-0.21,1.42-0.85,1.64-1.65c0.39-1.45,0.39-4.48,0.39-4.48S19.26,7.68,18.87,6.23
	"/>
<path class="st1" d="M8.11,13.46l4.84-2.75L8.11,7.96V13.46z"/>
</svg>
