<svg width="1200" height="800" viewBox="0 0 1200 800" fill="none" xmlns="http://www.w3.org/2000/svg">
<path d="M962.677 216.614C953.97 183.833 928.322 158.017 895.747 149.256C836.718 133.333 599.998 133.333 599.998 133.333C599.998 133.333 363.282 133.333 304.249 149.256C271.675 158.017 246.02 183.833 237.32 216.614C221.504 276.03 221.504 400.002 221.504 400.002C221.504 400.002 221.504 523.966 237.32 583.389C246.02 616.173 271.675 641.983 304.246 650.754C363.279 666.67 599.995 666.67 599.995 666.67C599.995 666.67 836.715 666.67 895.744 650.754C928.318 641.986 953.967 616.173 962.673 583.392C978.493 523.97 978.493 400.005 978.493 400.005C978.493 400.005 978.493 276.034 962.673 216.617" fill="#FFE4AE"/>
<path d="M522.579 512.557L720.428 400.008L522.579 287.447V512.557Z" fill="#030303"/>
</svg>
